<svg width="26" height="26" viewBox="0 0 26 26" fill="none" xmlns="http://www.w3.org/2000/svg">
<mask id="path-1-inside-1_51_195" fill="white">
<path fill-rule="evenodd" clip-rule="evenodd" d="M22.4865 7.75673H3.51351C1.96115 7.75673 0.702703 8.96677 0.702703 10.4594V22.6216C0.702703 24.1143 1.96115 25.3243 3.51351 25.3243H22.4865C24.0389 25.3243 25.2973 24.1143 25.2973 22.6216V10.4594C25.2973 8.96677 24.0389 7.75673 22.4865 7.75673ZM3.51351 7.08105C1.57305 7.08105 0 8.59361 0 10.4594V22.6216C0 24.4874 1.57305 26 3.51351 26H22.4865C24.4269 26 26 24.4874 26 22.6216V10.4594C26 8.59361 24.4269 7.08105 22.4865 7.08105H3.51351Z"/>
<path d="M3.51351 7.75673H22.4865C24.0389 7.75673 25.2973 8.96677 25.2973 10.4594V22.6216C25.2973 24.1143 24.0389 25.3243 22.4865 25.3243H3.51351C1.96115 25.3243 0.702703 24.1143 0.702703 22.6216V10.4594C0.702703 8.96677 1.96115 7.75673 3.51351 7.75673Z"/>
</mask>
<path fill-rule="evenodd" clip-rule="evenodd" d="M22.4865 7.75673H3.51351C1.96115 7.75673 0.702703 8.96677 0.702703 10.4594V22.6216C0.702703 24.1143 1.96115 25.3243 3.51351 25.3243H22.4865C24.0389 25.3243 25.2973 24.1143 25.2973 22.6216V10.4594C25.2973 8.96677 24.0389 7.75673 22.4865 7.75673ZM3.51351 7.08105C1.57305 7.08105 0 8.59361 0 10.4594V22.6216C0 24.4874 1.57305 26 3.51351 26H22.4865C24.4269 26 26 24.4874 26 22.6216V10.4594C26 8.59361 24.4269 7.08105 22.4865 7.08105H3.51351Z" fill="#846657"/>
<path d="M3.51351 7.75673H22.4865C24.0389 7.75673 25.2973 8.96677 25.2973 10.4594V22.6216C25.2973 24.1143 24.0389 25.3243 22.4865 25.3243H3.51351C1.96115 25.3243 0.702703 24.1143 0.702703 22.6216V10.4594C0.702703 8.96677 1.96115 7.75673 3.51351 7.75673Z" fill="white"/>
<path d="M3.51351 8.75673H22.4865V6.75673H3.51351V8.75673ZM1.7027 10.4594C1.7027 9.55566 2.4761 8.75673 3.51351 8.75673V6.75673C1.44619 6.75673 -0.297297 8.37789 -0.297297 10.4594H1.7027ZM1.7027 22.6216V10.4594H-0.297297V22.6216H1.7027ZM3.51351 24.3243C2.4761 24.3243 1.7027 23.5254 1.7027 22.6216H-0.297297C-0.297297 24.7032 1.44619 26.3243 3.51351 26.3243V24.3243ZM22.4865 24.3243H3.51351V26.3243H22.4865V24.3243ZM24.2973 22.6216C24.2973 23.5254 23.5239 24.3243 22.4865 24.3243V26.3243C24.5538 26.3243 26.2973 24.7032 26.2973 22.6216H24.2973ZM24.2973 10.4594V22.6216H26.2973V10.4594H24.2973ZM22.4865 8.75673C23.5239 8.75673 24.2973 9.55566 24.2973 10.4594H26.2973C26.2973 8.37789 24.5538 6.75673 22.4865 6.75673V8.75673ZM2 10.4594C2 9.77138 2.60297 9.08105 3.51351 9.08105V5.08105C0.543139 5.08105 -2 7.41583 -2 10.4594H2ZM2 22.6216V10.4594H-2V22.6216H2ZM3.51351 24C2.60297 24 2 23.3097 2 22.6216H-2C-2 25.6652 0.543137 28 3.51351 28V24ZM22.4865 24H3.51351V28H22.4865V24ZM24 22.6216C24 23.3097 23.397 24 22.4865 24V28C25.4569 28 28 25.6652 28 22.6216H24ZM24 10.4594V22.6216H28V10.4594H24ZM22.4865 9.08105C23.397 9.08105 24 9.77138 24 10.4594H28C28 7.41583 25.4569 5.08105 22.4865 5.08105V9.08105ZM3.51351 9.08105H22.4865V5.08105H3.51351V9.08105Z" fill="#846657" mask="url(#path-1-inside-1_51_195)"/>
<path fill-rule="evenodd" clip-rule="evenodd" d="M12.6485 1.67568C9.54381 1.67568 7.02692 4.09576 7.02692 7.08109H6.32422C6.32422 3.7226 9.15572 1 12.6485 1C16.1414 1 18.9729 3.7226 18.9729 7.08109H18.2702C18.2702 4.09576 15.7533 1.67568 12.6485 1.67568Z" fill="#846657" stroke="#846657" stroke-width="2"/>
</svg>
