<svg width="53" height="26" viewBox="0 0 53 26" fill="none" xmlns="http://www.w3.org/2000/svg">
<path fill-rule="evenodd" clip-rule="evenodd" d="M23.2691 3.1505L9.91166 12.4723C8.52028 13.4433 8.17949 15.3584 9.1505 16.7497C10.1215 18.1411 12.0366 18.4819 13.428 17.5109L26.7855 8.18914C28.1768 7.21814 28.5176 5.30305 27.5466 3.91166C26.5756 2.52028 24.6605 2.1795 23.2691 3.1505ZM9.33937 11.6522C7.49509 12.9393 7.04338 15.4778 8.33044 17.322C9.61751 19.1663 12.156 19.618 14.0003 18.331L27.3577 9.00919C29.202 7.72212 29.6537 5.18366 28.3667 3.33937C27.0796 1.49509 24.5411 1.04338 22.6969 2.33045L9.33937 11.6522Z" fill="#65402D"/>
<path d="M9.91166 12.4723L23.2691 3.1505C24.6605 2.1795 26.5756 2.52028 27.5466 3.91166C28.5176 5.30305 28.1768 7.21814 26.7855 8.18914L13.428 17.5109C12.0366 18.4819 10.1215 18.1411 9.1505 16.7497C8.17949 15.3584 8.52028 13.4433 9.91166 12.4723Z" fill="#F6E29A"/>
<path fill-rule="evenodd" clip-rule="evenodd" d="M40 12H25C23.3431 12 22 13.3431 22 15C22 16.6569 23.3431 18 25 18H40C41.6569 18 43 16.6569 43 15C43 13.3431 41.6569 12 40 12ZM25 11C22.7909 11 21 12.7909 21 15C21 17.2091 22.7909 19 25 19H40C42.2091 19 44 17.2091 44 15C44 12.7909 42.2091 11 40 11H25Z" fill="#65402D"/>
<path d="M25 12H40C41.6569 12 43 13.3431 43 15C43 16.6569 41.6569 18 40 18H25C23.3431 18 22 16.6569 22 15C22 13.3431 23.3431 12 25 12Z" fill="#F6E29A"/>
<path fill-rule="evenodd" clip-rule="evenodd" d="M53 19H0C0 19.3395 0.024172 19.6734 0.0708889 20C0.556119 23.3923 3.47353 26 7 26H46C49.5265 26 52.4439 23.3923 52.9291 20C52.9758 19.6734 53 19.3395 53 19ZM51.917 20H1.08296C1.55904 22.8377 4.027 25 7 25H46C48.973 25 51.441 22.8377 51.917 20Z" fill="#483737"/>
<path d="M1.08296 20H51.917C51.441 22.8377 48.973 25 46 25H7C4.027 25 1.55904 22.8377 1.08296 20Z" fill="#D07F7F"/>
<g filter="url(#filter0_f_43_116)">
<path d="M11 18C11.8179 18 12.006 17.7536 12.6884 17.4439C12.8877 17.3534 13.06 17.1219 13.2633 16.9989C13.4975 16.8572 13.6989 16.767 13.8866 16.554C14.1882 16.2118 14.7079 16.1317 15.0485 15.8187C15.4944 15.4089 16.5194 14.8397 17 14.5C17.9104 13.8564 18.5332 13.6032 19.3633 12.8464C19.5944 12.6357 19.9412 12.499 20.1984 12.2841C20.4043 12.112 20.6111 11.9677 20.8035 11.7712C21.0287 11.5413 21.3035 11.4828 21.5116 11.2212C21.7053 10.9778 22.1771 10.5795 22.4617 10.4612C23.17 10.1665 23.7589 9.55756 24.3437 9.05228C24.7069 8.73842 25.7421 8.16205 26 7.76697C26.4597 7.0628 26.895 6.95542 27.3332 6.20977C27.6031 5.75036 27.3132 5.66224 27.1456 5.31994C26.9909 5.00402 27.3582 4.93652 27.5631 5.05423C27.9063 5.25133 27.9928 5.6148 27.9928 5.98731C27.9928 6.20847 28.0512 6.52877 27.8354 6.65468C27.5952 6.79487 27.2819 6.32733 27.1214 6.48166C26.8565 6.73617 26.8361 7.43593 26.5767 7.76697" stroke="#070707" stroke-linecap="round" style="mix-blend-mode:darken"/>
</g>
<g filter="url(#filter1_f_43_116)">
<path d="M23.0001 16.8194C23.6382 17.2573 23.9126 17.1718 24.6055 17.3031C24.808 17.3415 25.0623 17.2589 25.2846 17.2748C25.5408 17.2931 25.7447 17.3328 26.0015 17.2724C26.4142 17.1754 26.8612 17.393 27.2891 17.3389C27.8493 17.2681 28.944 17.3869 29.495 17.3875C30.5388 17.3888 31.1559 17.5309 32.1957 17.4036C32.4852 17.3681 32.8266 17.4505 33.1386 17.4259C33.3885 17.4062 33.6246 17.4078 33.8766 17.3624C34.1714 17.3093 34.4161 17.4122 34.714 17.326C34.9913 17.2458 35.5658 17.1976 35.8491 17.2605C36.5544 17.4171 37.3295 17.2724 38.0476 17.2038C38.4936 17.1611 39.5999 17.2799 40.0059 17.1195C40.7295 16.8338 41.1247 16.9857 41.853 16.657C42.3017 16.4545 42.1212 16.2327 42.1678 15.8844C42.2109 15.563 42.5324 15.7086 42.6313 15.9073C42.7969 16.2398 42.676 16.5607 42.4829 16.842C42.3683 17.0091 42.2479 17.2823 42.0143 17.2619C41.7542 17.2392 41.7521 16.7184 41.5469 16.749C41.2084 16.7995 40.8297 17.3171 40.4558 17.4283" stroke="#070707" stroke-linecap="round" style="mix-blend-mode:darken"/>
</g>
<defs>
<filter id="filter0_f_43_116" x="8.5" y="2.5" width="22" height="18" filterUnits="userSpaceOnUse" color-interpolation-filters="sRGB">
<feFlood flood-opacity="0" result="BackgroundImageFix"/>
<feBlend mode="normal" in="SourceGraphic" in2="BackgroundImageFix" result="shape"/>
<feGaussianBlur stdDeviation="1" result="effect1_foregroundBlur_43_116"/>
</filter>
<filter id="filter1_f_43_116" x="20.5" y="13.196" width="24.7104" height="6.7605" filterUnits="userSpaceOnUse" color-interpolation-filters="sRGB">
<feFlood flood-opacity="0" result="BackgroundImageFix"/>
<feBlend mode="normal" in="SourceGraphic" in2="BackgroundImageFix" result="shape"/>
<feGaussianBlur stdDeviation="1" result="effect1_foregroundBlur_43_116"/>
</filter>
</defs>
</svg>
