<svg width="27" height="24" viewBox="0 0 27 24" fill="none" xmlns="http://www.w3.org/2000/svg">
<path d="M26.1103 21.0648C23.6069 22.7597 21.3442 23.5352 19.2064 23.5352C16.9431 23.531 15.1784 22.6734 13.75 21.7992C12.3123 20.9134 11.0772 19.9639 9.91415 19.4226C9.13596 19.0586 8.45069 18.8711 7.7043 18.8692C6.60156 18.8661 5.02271 19.3045 2.71746 21.0237C2.09743 21.4875 1.10983 21.4714 0.516931 20.9877C-0.0781561 20.5028 -0.0595168 19.7341 0.562707 19.2697C3.15028 17.332 5.46841 16.4433 7.7043 16.4397C9.92429 16.4456 11.6399 17.3125 13.0423 18.1805C14.4575 19.0624 15.6904 20.0041 16.8817 20.5449C17.6793 20.9108 18.4008 21.1035 19.2061 21.105C20.3354 21.1054 21.8743 20.7096 24.0707 19.2281C24.7231 18.7899 25.7055 18.8456 26.2677 19.3535C26.5231 19.5827 26.649 19.8644 26.649 20.1467C26.6492 20.484 26.4661 20.8212 26.1103 21.0621V21.0648Z" fill="#FAF5ED"/>
<path d="M26.4615 13.6237C23.9562 15.3203 21.6934 16.0941 19.5559 16.0945C17.2918 16.0905 15.529 15.2325 14.1001 14.3598C12.6618 13.4736 11.4289 12.5238 10.2637 11.9816C9.48658 11.6163 8.80186 11.4309 8.05437 11.4294C6.95082 11.4246 5.37497 11.8642 3.06973 13.5828C2.44806 14.0467 1.45935 14.0306 0.866183 13.5459C0.270822 13.0617 0.290832 12.2929 0.912507 11.8278C3.49953 9.88979 5.81875 9.00241 8.0541 8.99906C10.2763 9.00388 11.9875 9.87093 13.3934 10.7388C14.807 11.6216 16.0399 12.5634 17.2315 13.1053C18.0286 13.4699 18.7503 13.6645 19.5556 13.6645C20.6844 13.666 22.2238 13.2679 24.4224 11.7877C25.0723 11.3479 26.0569 11.4037 26.6194 11.9099C26.8754 12.1398 27.0001 12.4226 27.0001 12.7049C27.0004 13.0506 26.8176 13.39 26.4615 13.6289V13.6237Z" fill="#FAF5ED"/>
<path d="M26.4599 5.44339C23.9584 7.13772 21.6959 7.9126 19.5589 7.9126C17.2937 7.91113 15.529 7.05139 14.1001 6.17782C12.6632 5.29189 11.4289 4.34079 10.2637 3.79955C9.48713 3.43537 8.80186 3.24762 8.05437 3.24637C6.95246 3.24301 5.37497 3.68116 3.06973 5.40253C2.44806 5.86519 1.45935 5.84906 0.866183 5.36502C0.270822 4.88119 0.290832 4.1126 0.912507 3.64659C3.49953 1.70981 5.81875 0.819061 8.0541 0.817176C10.2763 0.822624 11.9875 1.68865 13.3934 2.55698C14.807 3.43977 16.0416 4.38165 17.234 4.92394C18.0305 5.28812 18.7503 5.48257 19.5587 5.48383C20.6844 5.48383 22.2238 5.08675 24.4227 3.60615C25.0726 3.16632 26.0572 3.22206 26.6197 3.72894C26.8757 3.95922 26.9985 4.24189 26.9985 4.52351C26.9988 4.86296 26.8176 5.20242 26.4599 5.44339Z" fill="#FAF5ED"/>
</svg>
