<svg width="90" height="89" viewBox="0 0 90 89" fill="none" xmlns="http://www.w3.org/2000/svg">
<path d="M87.9735 41.8802C86.5949 39.5425 84.4314 37.5661 81.4789 36.5725C80.2329 36.1516 78.9244 35.9387 77.6271 35.9288C77.594 35.9275 77.5608 35.9288 77.5399 35.9288C74.0364 35.9294 70.7981 37.3037 68.1855 39.4007C65.5424 41.5282 63.4356 44.4555 62.1619 47.9175L61.84 48.7918H61.8635C61.2596 50.6885 60.9625 52.5852 60.9435 54.4163C60.9419 54.4753 60.9419 54.5344 60.9419 54.5912C60.9435 57.4432 61.615 60.1477 62.9702 62.4455C64.3489 64.7859 66.5139 66.7623 69.4648 67.7547L69.6972 67.1366L69.4648 67.7566C70.7054 68.1732 72.0097 68.3846 73.3057 68.396H73.3346C73.3501 68.3944 73.3761 68.396 73.408 68.396C76.9119 68.3944 80.1473 67.0216 82.7569 64.9266C85.3916 62.8031 87.4959 59.885 88.7735 56.4322L88.7789 56.4217L88.7873 56.3986C89.5847 54.2173 89.9751 52.0208 90.0002 49.9091V49.7422C89.997 46.8835 89.3274 44.1761 87.9723 41.8768L87.9735 41.8802ZM66.7959 54.4679C66.8098 52.8278 67.1162 51.0872 67.7532 49.3568L67.7549 49.3512L67.759 49.3401L67.7619 49.3352C68.7704 46.5719 70.4462 44.3285 72.2782 42.8602C74.092 41.4018 75.9819 40.7484 77.5029 40.7506H77.5705C78.1592 40.7577 78.7045 40.8449 79.2698 41.0343C80.578 41.4707 81.7938 42.4402 82.7125 43.9889C83.6009 45.4844 84.1465 47.4867 84.1436 49.69V49.8562C84.1298 51.4877 83.823 53.2237 83.1918 54.9537L83.1905 54.959L83.1821 54.9778L83.1779 54.9899C82.1694 57.7494 80.4936 59.9925 78.6617 61.4568C76.8478 62.9159 74.9551 63.5711 73.438 63.5689H73.3636C72.7832 63.5624 72.2334 63.4728 71.663 63.2858C70.3616 62.851 69.1458 61.8784 68.2271 60.3331C67.3357 58.8324 66.7917 56.8275 66.793 54.6218V54.4707L66.1022 54.4614L66.7975 54.4738L66.7959 54.4679Z" fill="#F9EED9"/>
<path d="M74.463 59.2984C77.4596 51.8103 78.1185 43.6347 78.1211 34.0182C78.1211 33.5565 77.9225 33.1037 77.5742 32.7786C77.2262 32.4488 76.7482 32.2612 76.256 32.2612H8.62856C8.13477 32.2612 7.65482 32.4488 7.30846 32.7752C6.95888 33.1034 6.76123 33.5565 6.76123 34.0179C6.76316 43.6656 7.67188 52.2189 10.7869 59.8803C12.3088 63.6328 14.3728 67.1523 17.0874 70.4453H67.6575C70.6897 66.8912 72.898 63.2042 74.4624 59.2978L74.463 59.2984Z" fill="#F9EED9"/>
<path d="M85.0312 73.7061C84.7495 73.0432 84.0613 72.605 83.3 72.605H1.8664C1.11123 72.605 0.42977 73.0321 0.143603 73.6894C-0.14707 74.3453 0.0116251 75.1006 0.546297 75.604C3.77557 78.6148 5.48195 81.315 8.89986 83.6644C12.3303 85.9922 17.1214 87.5687 26.0815 88.5496L26.2968 88.5629H58.8696L59.1378 88.5444C67.9423 87.3425 72.6269 85.7691 76.0351 83.517C79.4353 81.2424 81.209 78.6578 84.5924 75.6291C85.1461 75.1284 85.3199 74.3681 85.0367 73.7037L85.0312 73.7061Z" fill="#F9EED9"/>
<path d="M33.9522 29.3455C31.3474 26.5229 30.1558 23.9717 30.1558 21.5614C30.1622 19.0095 31.48 17.0198 32.8236 15.4094C34.185 13.7884 35.6441 12.3958 36.4759 11.0845C37.0354 10.2071 37.3235 9.43446 37.3264 8.59291C37.3312 7.34959 36.6574 5.56945 34.0153 2.97032C33.3026 2.27124 33.3274 1.15772 34.0707 0.489243C34.8159 -0.18171 35.9972 -0.160695 36.7109 0.540855C39.6888 3.45831 41.0546 6.07197 41.06 8.59291C41.051 11.0959 39.7187 13.0303 38.3847 14.6114C37.0296 16.207 35.5823 17.5972 34.7512 18.9403C34.1888 19.8396 33.8927 20.6531 33.8904 21.5611C33.8898 22.8344 34.4982 24.5694 36.7749 27.0458C37.4484 27.7814 37.3627 28.889 36.5821 29.5229C36.23 29.8109 35.797 29.9528 35.3631 29.9528C34.8448 29.9531 34.3266 29.7466 33.9564 29.3455H33.9522Z" fill="#F9EED9"/>
<path d="M42.3407 29.7413C39.7343 26.9165 38.5456 24.3653 38.5449 21.9553C38.551 19.4026 39.8692 17.415 41.2099 15.8039C42.5712 14.1823 44.0304 12.7922 44.8634 11.4784C45.4245 10.6023 45.7094 9.83026 45.7116 8.98748C45.719 7.74323 45.0437 5.96649 42.4035 3.36736C41.6908 2.66643 41.7156 1.55167 42.4602 0.882883C43.2041 0.21162 44.3851 0.234181 45.0997 0.935113C48.0769 3.85195 49.4402 6.46685 49.4453 8.98717C49.4379 11.4927 48.1059 13.4221 46.7726 15.0072C45.4165 16.601 43.9695 17.9911 43.1371 19.3346C42.577 20.2333 42.278 21.047 42.278 21.955C42.2757 23.2277 42.8873 24.9633 45.1612 27.4422C45.8369 28.175 45.7512 29.2851 44.9735 29.9193C44.6204 30.208 44.1859 30.3486 43.7523 30.3486C43.2211 30.3489 42.6997 30.1427 42.3327 29.7413H42.3407Z" fill="#F9EED9"/>
<path d="M51.5633 29.7394C48.9604 26.919 47.77 24.3681 47.77 21.9587C47.7723 19.4047 49.093 17.415 50.435 15.8039C51.796 14.1839 53.2571 12.7922 54.0885 11.4784C54.648 10.6029 54.9364 9.83026 54.9384 8.98748C54.9435 7.74509 54.2704 5.96649 51.626 3.36736C50.9153 2.66643 50.9401 1.55167 51.6836 0.882883C52.4269 0.21162 53.6076 0.234181 54.3235 0.935113C57.2988 3.85195 58.6672 6.46685 58.6701 8.98717C58.6617 11.4927 57.3313 13.4221 55.9974 15.0072C54.6412 16.601 53.1943 17.993 52.3612 19.3373C51.8018 20.2354 51.5031 21.047 51.5011 21.9584C51.5011 23.2277 52.1111 24.9633 54.3857 27.4426C55.0613 28.1753 54.9757 29.2854 54.197 29.9196C53.8433 30.2083 53.409 30.3467 52.9764 30.3467C52.4549 30.347 51.9334 30.1427 51.5633 29.7394Z" fill="#F9EED9"/>
</svg>
