<svg width="40" height="40" viewBox="0 0 40 40" fill="none" xmlns="http://www.w3.org/2000/svg">
<path fill-rule="evenodd" clip-rule="evenodd" d="M37.3333 20C37.3333 29.5729 29.5729 37.3333 20 37.3333C10.4271 37.3333 2.66667 29.5729 2.66667 20C2.66667 10.4271 10.4271 2.66667 20 2.66667C29.5729 2.66667 37.3333 10.4271 37.3333 20ZM40 20C40 31.0457 31.0457 40 20 40C8.95431 40 0 31.0457 0 20C0 8.95431 8.95431 0 20 0C31.0457 0 40 8.95431 40 20ZM14.6666 25.3334V28.6666H17.3332V25.3334H19.3331V22.6667H17.3332V22H22.1715C23.6958 22 25.1577 21.3945 26.2356 20.3166C28.2581 18.2941 28.4857 15.0921 26.7695 12.8039L26.5293 12.4837C25.3567 10.9202 23.5164 10 21.562 10H14.6666V10.6666V12.6667V22.6667H12.6665V25.3334H14.6666ZM22.1715 19.3333H17.3332V12.6667H21.562C22.677 12.6667 23.727 13.1916 24.396 14.0837L24.6362 14.4039C25.5561 15.6305 25.4341 17.3468 24.35 18.431C23.7722 19.0087 22.9886 19.3333 22.1715 19.3333Z" fill="#B17B57" fill-opacity="0.8"/>
</svg>
