<svg width="59" height="45" viewBox="0 0 59 45" fill="none" xmlns="http://www.w3.org/2000/svg">
<path fill-rule="evenodd" clip-rule="evenodd" d="M52 23.5H7V21H52V23.5Z" fill="#C87137"/>
<path fill-rule="evenodd" clip-rule="evenodd" d="M54.5 28.5H4.5V23.5H54.5V28.5Z" fill="#E4ADAD"/>
<path d="M10.4444 31C7.43756 31 5 33.2386 5 36C5 38.7614 7.43756 41 10.4444 41H48.5556C51.5624 41 54 38.7614 54 36C54 33.2386 51.5624 31 48.5556 31H10.4444Z" fill="#C87137"/>
<g filter="url(#filter0_f_43_151)">
<path fill-rule="evenodd" clip-rule="evenodd" d="M52 39.5C52 40.3284 51.3284 41 50.5 41H8.5C7.67157 41 7 40.3284 7 39.5C7 38.6716 7.67157 38 8.5 38H50.5C51.3284 38 52 38.6716 52 39.5Z" fill="#65402D"/>
</g>
<path fill-rule="evenodd" clip-rule="evenodd" d="M57 31H2V28.5H57V31Z" fill="#F5C86E"/>
<path d="M27.0333 2.49882C34.4398 2.00506 40.2297 3.71622 44.3214 6.98583C48.2831 10.1516 50.7045 14.8195 51.4372 20.4999H7.55857C8.20428 14.8999 9.45144 10.72 12.2113 7.79103C15.0529 4.77522 19.5871 2.99523 27.0333 2.49882Z" fill="#EFB994"/>
<path d="M27.0333 2.49882L27 1.99993L27.0333 2.49882ZM44.3214 6.98583L44.0092 7.37644L44.3214 6.98583ZM12.2113 7.79103L12.5752 8.13393L12.2113 7.79103ZM7.55857 20.4999L7.06186 20.4427L6.9976 20.9999H7.55857V20.4999ZM51.4372 20.4999V20.9999H52.0058L51.9331 20.436L51.4372 20.4999ZM52.4971 20.946L52.9942 20.8921V20.8921L52.4971 20.946ZM44.9456 6.20461L45.2578 5.814L44.9456 6.20461ZM52.5572 21.4999V21.9999H53.1144L53.0543 21.446L52.5572 21.4999ZM6.44385 21.4999L5.94667 21.4469L5.88766 21.9999H6.44385V21.4999ZM6.50286 20.9469L7.00003 20.9999L6.50286 20.9469ZM11.4835 7.10525L11.1196 6.76236H11.1196L11.4835 7.10525ZM26.9668 1.50104L27 1.99993L26.9668 1.50104ZM27.0666 2.99772C34.3796 2.51019 40.037 4.20229 44.0092 7.37644L44.6335 6.59522C40.4224 3.23014 34.5001 1.49994 27 1.99993L27.0666 2.99772ZM12.5752 8.13393C15.291 5.25168 19.6743 3.49053 27.0666 2.99772L27 1.99993C19.5 2.49993 14.8149 4.29876 11.8474 7.44814L12.5752 8.13393ZM8.05527 20.5572C8.69781 14.9848 9.92978 10.9414 12.5752 8.13393L11.8474 7.44814C8.97309 10.4985 7.71076 14.815 7.06186 20.4427L8.05527 20.5572ZM51.4372 19.9999H7.55857V20.9999H51.4372V19.9999ZM44.0092 7.37644C47.8538 10.4486 50.2224 14.9904 50.9413 20.5639L51.9331 20.436C51.1866 14.6486 48.7124 9.85466 44.6335 6.59522L44.0092 7.37644ZM52.9942 20.8921C52.3153 14.6354 49.7116 9.37305 45.2578 5.814L44.6335 6.59522C48.8446 9.96029 51.3447 14.9603 52 20.9999L52.9942 20.8921ZM53.0543 21.446L52.9942 20.8921L52 20.9999L52.0601 21.5539L53.0543 21.446ZM6.00568 20.8938L5.94667 21.4469L6.94103 21.553L7.00003 20.9999L6.00568 20.8938ZM11.1196 6.76236C7.91674 10.1614 6.64048 14.9442 6.00568 20.8938L7.00003 20.9999C7.62979 15.0976 8.87979 10.5976 11.8474 7.44814L11.1196 6.76236ZM26.9335 1.00215C19.3259 1.50931 14.3389 3.34575 11.1196 6.76236L11.8474 7.44814C14.8149 4.29875 19.5 2.49993 27 1.99993L26.9335 1.00215ZM45.2578 5.814C40.8076 2.25793 34.6204 0.489695 26.9335 1.00215L27 1.99993C34.5001 1.49994 40.4224 3.23014 44.6335 6.59522L45.2578 5.814ZM6.44385 21.9999H52.5572V20.9999H6.44385V21.9999Z" fill="#EFB994"/>
<path fill-rule="evenodd" clip-rule="evenodd" d="M21.5693 13.3622C20.9169 13.5882 20.2049 13.2426 19.979 12.5903L19.1607 10.228C18.9347 9.57565 19.2803 8.86365 19.9326 8.63768C20.585 8.4117 21.297 8.75733 21.5229 9.40965L22.3412 11.7719C22.5672 12.4243 22.2216 13.1363 21.5693 13.3622Z" fill="#C87137"/>
<path fill-rule="evenodd" clip-rule="evenodd" d="M27.0575 18.1967C26.4509 17.8672 26.2262 17.1083 26.5557 16.5016L27.749 14.3048C28.0785 13.6982 28.8374 13.4735 29.4441 13.803C30.0507 14.1325 30.2754 14.8914 29.9458 15.4981L28.7526 17.6949C28.423 18.3016 27.6641 18.5262 27.0575 18.1967Z" fill="#C87137"/>
<path fill-rule="evenodd" clip-rule="evenodd" d="M37.0968 13.1057C36.5154 13.4778 35.7423 13.3081 35.3702 12.7266L34.0226 10.6209C33.6505 10.0394 33.8202 9.26635 34.4017 8.89424C34.9832 8.52212 35.7563 8.69184 36.1284 9.27332L37.4759 11.3791C37.848 11.9605 37.6783 12.7336 37.0968 13.1057Z" fill="#C87137"/>
<g filter="url(#filter1_f_43_151)">
<path d="M6 19H53V22H6V19Z" fill="#886138"/>
</g>
<defs>
<filter id="filter0_f_43_151" x="3" y="34" width="53" height="11" filterUnits="userSpaceOnUse" color-interpolation-filters="sRGB">
<feFlood flood-opacity="0" result="BackgroundImageFix"/>
<feBlend mode="normal" in="SourceGraphic" in2="BackgroundImageFix" result="shape"/>
<feGaussianBlur stdDeviation="2" result="effect1_foregroundBlur_43_151"/>
</filter>
<filter id="filter1_f_43_151" x="0" y="13" width="59" height="15" filterUnits="userSpaceOnUse" color-interpolation-filters="sRGB">
<feFlood flood-opacity="0" result="BackgroundImageFix"/>
<feBlend mode="normal" in="SourceGraphic" in2="BackgroundImageFix" result="shape"/>
<feGaussianBlur stdDeviation="3" result="effect1_foregroundBlur_43_151"/>
</filter>
</defs>
</svg>
