<svg width="52" height="38" viewBox="0 0 52 38" fill="none" xmlns="http://www.w3.org/2000/svg">
<ellipse cx="22.011" cy="28.6511" rx="7.77558" ry="1.79437" transform="rotate(-5.91921 22.011 28.6511)" fill="#CAB9B9"/>
<path fill-rule="evenodd" clip-rule="evenodd" d="M17.1671 4.45308C16.9674 4.46416 16.8705 4.51834 16.8172 4.57789C16.7302 4.67524 16.6445 4.78897 16.545 4.92449C16.5336 4.94003 16.522 4.95595 16.5101 4.9722C16.4243 5.0895 16.3262 5.22352 16.2238 5.34678C15.999 5.61746 15.6509 5.96767 15.1277 6.03484L15.1132 6.0367C14.7189 6.07759 14.311 6.03618 13.9475 5.98932C13.8442 5.976 13.7449 5.96233 13.6483 5.94904C13.3838 5.91263 13.1402 5.87909 12.8924 5.86356C12.2449 5.82295 11.783 5.9221 11.4207 6.3683C11.3886 6.40777 11.3329 6.48023 11.2629 6.57135C11.1104 6.76989 10.8898 7.05702 10.6971 7.28456C10.5438 7.46552 10.3734 7.65287 10.2033 7.80591C10.0562 7.93819 9.82377 8.12589 9.54941 8.18551C9.37876 8.22259 9.19554 8.25533 9.01986 8.28673L9.00785 8.28887C8.82433 8.32167 8.64598 8.35368 8.4717 8.39096C8.11395 8.46749 7.82979 8.55547 7.63114 8.67184C7.34255 8.84091 7.06918 8.95551 6.84519 9.04756C6.83496 9.05177 6.82489 9.05591 6.81497 9.05998C6.59395 9.15077 6.44669 9.21125 6.32229 9.28537C6.20796 9.35348 6.13772 9.41995 6.0846 9.50706C6.02785 9.60015 5.96655 9.75688 5.93597 10.0395C5.82806 11.0367 5.53238 11.6719 5.14045 12.4473C4.81228 13.0965 4.40314 13.6974 4.00729 14.2634C3.95651 14.336 3.90602 14.4079 3.8559 14.4793C3.50801 14.975 3.178 15.4452 2.89375 15.9354C2.84621 16.0173 2.80436 16.0889 2.76744 16.1521C2.5956 16.4461 2.53021 16.558 2.49247 16.6877C2.45584 16.8135 2.4421 16.9837 2.49552 17.4989C2.53822 17.9108 2.60989 18.0947 2.70268 18.2249C2.80611 18.3701 2.98398 18.5183 3.39054 18.7663C4.33548 19.3427 4.96223 19.981 5.36924 20.7665C5.76844 21.5369 5.93028 22.4011 6.03106 23.3731C6.05523 23.6062 6.18571 23.8776 6.4618 24.1878C6.73576 24.4956 7.11716 24.8009 7.563 25.0975C8.25374 25.5569 9.02563 25.95 9.68441 26.2855C9.8843 26.3873 10.0738 26.4838 10.2474 26.5752C10.4466 26.6801 10.6634 26.7889 10.8899 26.9026C11.6107 27.2642 12.4293 27.6749 13.0868 28.1644C13.3309 28.346 13.5842 28.4007 13.9132 28.3912C14.0857 28.3862 14.2705 28.3636 14.4852 28.3328C14.5293 28.3265 14.5751 28.3197 14.6223 28.3127C14.7948 28.2873 14.9856 28.2592 15.1765 28.2394C18.2015 27.9258 21.1753 27.3422 22.971 25.1311C23.2666 24.7672 23.518 24.3569 23.7938 23.9068C23.8543 23.8081 23.916 23.7075 23.9795 23.6051C24.3192 23.0575 24.708 22.4675 25.2235 21.9902C25.6935 21.5552 25.9389 21.248 26.1004 20.9364C26.265 20.619 26.3642 20.2567 26.4817 19.6627C26.5306 19.415 26.5608 19.1806 26.5936 18.9256C26.6061 18.828 26.6191 18.7274 26.6336 18.622C26.6841 18.2548 26.7513 17.8564 26.8901 17.4369C27.0392 16.9861 27.0338 16.6033 26.966 16.1857C26.934 15.9885 26.8896 15.7914 26.8389 15.5668C26.8335 15.5425 26.8279 15.5179 26.8223 15.493C26.7678 15.2507 26.7091 14.9823 26.6665 14.6913C26.6646 14.6887 26.6522 14.6524 26.6122 14.5701C26.5633 14.4694 26.4958 14.3446 26.42 14.2114C26.269 13.9462 26.1009 13.6755 26.0226 13.5527C25.8111 13.2204 25.5769 12.9062 25.3282 12.5824C25.2757 12.5141 25.2223 12.4449 25.1682 12.375C24.9706 12.1194 24.7651 11.8535 24.57 11.5803C24.1863 11.0429 24.0406 10.5817 23.9314 10.2362C23.914 10.1812 23.8976 10.1291 23.8813 10.0802C23.7759 9.76424 23.6666 9.51452 23.2694 9.19193C23.0983 9.05298 22.9507 8.92729 22.8153 8.81199C22.3555 8.42052 22.0363 8.14874 21.416 7.88371C20.8996 7.66308 20.5177 7.28177 20.219 6.91894C20.0683 6.73586 19.9294 6.54544 19.8031 6.37077C19.7903 6.35301 19.7776 6.33545 19.7651 6.31807C19.6506 6.15958 19.5474 6.01668 19.4426 5.88446C19.3093 5.71621 18.9892 5.38717 18.6327 5.08107C18.4573 4.93048 18.2846 4.79549 18.1334 4.69408C18.058 4.6435 17.9934 4.60501 17.9407 4.57795C17.9148 4.56459 17.8941 4.55525 17.8785 4.549C17.864 4.54318 17.8561 4.541 17.8561 4.541C17.6116 4.48059 17.3706 4.44181 17.1671 4.45308ZM17.1009 3.25867C17.4808 3.23762 17.8573 3.30908 18.143 3.37968C18.3762 3.43729 18.6103 3.57362 18.7996 3.70049C19.0028 3.83676 19.2143 4.0038 19.4119 4.17347C19.8014 4.50791 20.1828 4.89233 20.3803 5.14157C20.5027 5.29608 20.622 5.46143 20.7338 5.61629C20.7469 5.63433 20.7598 5.65222 20.7726 5.66994C20.899 5.84486 21.0184 6.00773 21.1426 6.1587C21.3939 6.46398 21.6288 6.67379 21.886 6.78367C22.6871 7.12594 23.1612 7.53143 23.6464 7.94635C23.7695 8.0517 23.8934 8.15765 24.0236 8.26333C24.6463 8.76911 24.8616 9.23874 25.016 9.70165C25.0376 9.76635 25.0575 9.82861 25.0769 9.88924C25.1841 10.2242 25.2755 10.5097 25.5436 10.8852C25.7241 11.1381 25.9113 11.3802 26.1066 11.633C26.1627 11.7055 26.2194 11.7789 26.2769 11.8537C26.53 12.1832 26.7907 12.5316 27.0317 12.9102C27.1165 13.0433 27.2957 13.3317 27.4596 13.6196C27.5412 13.7629 27.623 13.9132 27.6882 14.0475C27.7399 14.1539 27.8236 14.3325 27.8471 14.4972C27.8828 14.747 27.9339 14.9837 27.9894 15.2306C27.995 15.2555 28.0007 15.2806 28.0064 15.3059C28.0558 15.5249 28.1086 15.7586 28.1468 15.994C28.2352 16.5385 28.2527 17.1268 28.0258 17.8126C27.9213 18.1284 27.8659 18.4417 27.8186 18.7851C27.8072 18.8678 27.7961 18.9546 27.7846 19.0442C27.7503 19.3113 27.7126 19.6042 27.6552 19.8947C27.5345 20.5054 27.4099 21.0097 27.1624 21.487C26.9119 21.9703 26.557 22.3859 26.0361 22.8681C25.6493 23.2262 25.3323 23.6936 24.9961 24.2356C24.941 24.3244 24.8852 24.4157 24.8282 24.5087C24.5516 24.9609 24.2501 25.4536 23.8996 25.8852C21.7606 28.519 18.3012 29.1181 15.2999 29.4293C15.1371 29.4461 14.9803 29.4692 14.812 29.494C14.7609 29.5015 14.7088 29.5092 14.6551 29.5169C14.4342 29.5486 14.1927 29.5798 13.948 29.5869C13.4423 29.6016 12.8967 29.5141 12.3726 29.124C11.8072 28.7031 11.1285 28.3622 10.4308 28.0117C10.1849 27.8882 9.93658 27.7635 9.69005 27.6337C9.54124 27.5553 9.36986 27.4681 9.18275 27.3729C8.51851 27.0349 7.65595 26.596 6.90048 26.0935C6.41201 25.7686 5.93755 25.3981 5.56824 24.9832C5.20108 24.5707 4.90091 24.0725 4.84119 23.4965C4.74471 22.5659 4.60076 21.8835 4.30712 21.3169C4.02129 20.7652 3.56813 20.2759 2.76755 19.7875C2.34807 19.5316 1.98401 19.2779 1.72838 18.919C1.46211 18.5452 1.35756 18.1229 1.30565 17.6223C1.25181 17.103 1.23587 16.7245 1.34389 16.3534C1.42678 16.0686 1.58431 15.8016 1.75771 15.5078C1.79099 15.4514 1.82486 15.394 1.8589 15.3353C2.17117 14.7968 2.53358 14.2807 2.87879 13.7891C2.92863 13.7181 2.9781 13.6477 3.02701 13.5778C3.42215 13.0128 3.7869 12.4733 4.07285 11.9076C4.44761 11.1662 4.66259 10.6879 4.74667 9.91081C4.79014 9.50904 4.88949 9.16927 5.06325 8.88429C5.24066 8.59335 5.47081 8.4002 5.71003 8.25768C5.91435 8.13595 6.14222 8.04272 6.33655 7.96321C6.35484 7.95573 6.37284 7.94836 6.39049 7.94111C6.60962 7.85106 6.81581 7.76309 7.02647 7.63968C7.39676 7.42275 7.83625 7.30358 8.22148 7.22118C8.41869 7.17899 8.61666 7.14359 8.79739 7.11129C8.97139 7.08019 9.12728 7.05232 9.26889 7.02224C9.27606 7.01697 9.31959 6.9918 9.40335 6.91647C9.51505 6.81601 9.64534 6.67542 9.7842 6.51146C9.97058 6.29139 10.1216 6.0936 10.2556 5.91798C10.3396 5.80802 10.4169 5.70676 10.4921 5.61417C11.2116 4.72822 12.1575 4.61888 12.9673 4.66966C13.2634 4.68823 13.5711 4.73064 13.8475 4.76874C13.9355 4.78086 14.0202 4.79255 14.1005 4.80289C14.4511 4.84809 14.7369 4.87149 14.9803 4.84762C15.0313 4.8393 15.126 4.79637 15.3036 4.58251C15.3808 4.48955 15.4555 4.38747 15.544 4.26664C15.5559 4.25039 15.5681 4.23379 15.5805 4.21683C15.6797 4.08168 15.7958 3.92556 15.9256 3.78044C16.2652 3.40067 16.7173 3.27994 17.1009 3.25867Z" fill="#483737"/>
<path d="M16.8172 4.57789C16.8705 4.51834 16.9674 4.46416 17.1671 4.45308C17.3706 4.44181 17.6116 4.48059 17.8561 4.541C17.8561 4.541 17.864 4.54318 17.8785 4.549C17.8941 4.55525 17.9148 4.56459 17.9407 4.57795C17.9934 4.60501 18.058 4.6435 18.1334 4.69408C18.2846 4.79549 18.4573 4.93048 18.6327 5.08107C18.9892 5.38717 19.3093 5.71621 19.4426 5.88446C19.5474 6.01668 19.6506 6.15958 19.7651 6.31807L19.8031 6.37077C19.9294 6.54544 20.0683 6.73586 20.219 6.91894C20.5177 7.28177 20.8996 7.66308 21.416 7.88371C22.0363 8.14874 22.3555 8.42052 22.8153 8.81199C22.9507 8.92729 23.0983 9.05298 23.2694 9.19193C23.6666 9.51452 23.7759 9.76424 23.8813 10.0802C23.8976 10.1291 23.914 10.1812 23.9314 10.2362C24.0406 10.5817 24.1863 11.0429 24.57 11.5803C24.7651 11.8535 24.9706 12.1194 25.1682 12.375C25.2223 12.4449 25.2757 12.5141 25.3282 12.5824C25.5769 12.9062 25.8111 13.2204 26.0226 13.5527C26.1009 13.6755 26.269 13.9462 26.42 14.2114C26.4958 14.3446 26.5633 14.4694 26.6122 14.5701C26.6522 14.6524 26.6646 14.6887 26.6665 14.6913C26.7091 14.9823 26.7678 15.2507 26.8223 15.493L26.8389 15.5668C26.8896 15.7914 26.934 15.9885 26.966 16.1857C27.0338 16.6033 27.0392 16.9861 26.8901 17.4369C26.7513 17.8564 26.6841 18.2548 26.6336 18.622C26.6191 18.7274 26.6061 18.828 26.5936 18.9256C26.5608 19.1806 26.5306 19.415 26.4817 19.6627C26.3642 20.2567 26.265 20.619 26.1004 20.9364C25.9389 21.248 25.6935 21.5552 25.2235 21.9902C24.708 22.4675 24.3192 23.0575 23.9795 23.6051C23.916 23.7075 23.8543 23.8081 23.7938 23.9068C23.518 24.3569 23.2666 24.7672 22.971 25.1311C21.1753 27.3422 18.2015 27.9258 15.1765 28.2394C14.9856 28.2592 14.7948 28.2873 14.6223 28.3127L14.4852 28.3328C14.2705 28.3636 14.0857 28.3862 13.9132 28.3912C13.5842 28.4007 13.3309 28.346 13.0868 28.1644C12.4293 27.6749 11.6107 27.2642 10.8899 26.9026C10.6634 26.7889 10.4466 26.6801 10.2474 26.5752C10.0738 26.4838 9.8843 26.3873 9.68441 26.2855C9.02563 25.95 8.25374 25.5569 7.563 25.0975C7.11716 24.8009 6.73576 24.4956 6.4618 24.1878C6.18571 23.8776 6.05523 23.6062 6.03106 23.3731C5.93028 22.4011 5.76844 21.5369 5.36924 20.7665C4.96223 19.981 4.33548 19.3427 3.39054 18.7663C2.98398 18.5183 2.80611 18.3701 2.70268 18.2249C2.60989 18.0947 2.53822 17.9108 2.49552 17.4989C2.4421 16.9837 2.45584 16.8135 2.49247 16.6877C2.53021 16.558 2.5956 16.4461 2.76744 16.1521C2.80436 16.0889 2.84621 16.0173 2.89375 15.9354C3.178 15.4452 3.50801 14.975 3.8559 14.4793L4.00729 14.2634C4.40314 13.6974 4.81228 13.0965 5.14045 12.4473C5.53238 11.6719 5.82806 11.0367 5.93597 10.0395C5.96655 9.75688 6.02785 9.60015 6.0846 9.50706C6.13772 9.41995 6.20796 9.35348 6.32229 9.28537C6.44669 9.21125 6.59395 9.15077 6.81497 9.05998L6.84519 9.04756C7.06918 8.95551 7.34255 8.84091 7.63114 8.67184C7.82979 8.55547 8.11395 8.46749 8.4717 8.39096C8.64598 8.35368 8.82433 8.32167 9.00785 8.28887L9.01986 8.28673C9.19554 8.25533 9.37876 8.22259 9.54941 8.18551C9.82377 8.12589 10.0562 7.93819 10.2033 7.80591C10.3734 7.65287 10.5438 7.46552 10.6971 7.28456C10.8898 7.05702 11.1104 6.76989 11.2629 6.57135C11.3329 6.48023 11.3886 6.40777 11.4207 6.3683C11.783 5.9221 12.2449 5.82295 12.8924 5.86356C13.1402 5.87909 13.3838 5.91263 13.6483 5.94904C13.7449 5.96233 13.8442 5.976 13.9475 5.98932C14.311 6.03618 14.7189 6.07759 15.1132 6.0367L15.1277 6.03484C15.6509 5.96767 15.999 5.61746 16.2238 5.34678C16.3262 5.22352 16.4243 5.0895 16.5101 4.9722L16.545 4.92449C16.6445 4.78897 16.7302 4.67524 16.8172 4.57789Z" fill="#88502B"/>
<path fill-rule="evenodd" clip-rule="evenodd" d="M9.81519 13.753C9.63129 13.7216 9.45728 13.6458 9.28618 13.5466L9.88626 12.5117C9.94093 12.5434 9.97646 12.5593 9.99649 12.567C10.0053 12.5637 10.0171 12.5592 10.0332 12.5527C10.0386 12.5506 10.0448 12.548 10.0518 12.5452C10.0814 12.5332 10.1237 12.5161 10.1662 12.5005C10.2828 12.4575 10.4302 12.4136 10.619 12.394L10.7424 13.5839C10.6785 13.5905 10.6308 13.6041 10.5798 13.6229C10.5566 13.6315 10.5369 13.6394 10.5098 13.6504C10.5004 13.6542 10.4901 13.6583 10.4784 13.663C10.4392 13.6788 10.3832 13.7008 10.3207 13.7197C10.1809 13.7618 10.0135 13.7868 9.81519 13.753Z" fill="#483737"/>
<path fill-rule="evenodd" clip-rule="evenodd" d="M17.8544 11.4349C17.7153 11.4132 17.6363 11.4042 17.5487 11.4133L17.4253 10.2234C17.6803 10.197 17.8939 10.2303 18.0368 10.2526L18.0389 10.2529C18.1952 10.2773 18.2519 10.2842 18.3099 10.2782L18.9621 10.2105L19.0855 11.4004L18.4333 11.468C18.2096 11.4912 18.0086 11.4593 17.8806 11.439C17.8715 11.4376 17.8627 11.4362 17.8544 11.4349Z" fill="#483737"/>
<path fill-rule="evenodd" clip-rule="evenodd" d="M15.1011 16.373C14.9446 16.3495 14.8538 16.3462 14.7334 16.3823L14.3896 15.2365C14.7574 15.1262 15.0527 15.1561 15.2789 15.1901C15.3152 15.1955 15.3481 15.2007 15.3784 15.2054C15.5396 15.2305 15.6268 15.2441 15.7468 15.2317L15.8702 16.4216C15.5819 16.4514 15.3304 16.4103 15.1686 16.3838C15.144 16.3798 15.1214 16.3761 15.1011 16.373Z" fill="#483737"/>
<path fill-rule="evenodd" clip-rule="evenodd" d="M9.81474 19.9939C9.62096 19.9569 9.51362 19.9396 9.40995 19.9478L9.31494 18.7554C9.59293 18.7332 9.84681 18.782 10.0177 18.8148C10.0251 18.8162 10.0324 18.8176 10.0394 18.819C10.2358 18.8566 10.3285 18.8698 10.4103 18.8614L10.5337 20.0512C10.2603 20.0796 10.0054 20.0306 9.83663 19.9981C9.82916 19.9967 9.82187 19.9953 9.81474 19.9939Z" fill="#483737"/>
<path fill-rule="evenodd" clip-rule="evenodd" d="M22.2951 17.0056C22.2154 17.0111 22.1491 17.0157 22.0854 17.0223L21.9621 15.8324C22.0474 15.8236 22.1348 15.8175 22.2111 15.8123C22.22 15.8116 22.2288 15.811 22.2374 15.8104C22.3241 15.8044 22.3986 15.7988 22.4692 15.7904C22.6135 15.7733 22.6983 15.7487 22.7526 15.7202L23.309 16.7792C23.0652 16.9073 22.812 16.9544 22.6101 16.9783C22.5076 16.9905 22.4069 16.9978 22.3204 17.0038C22.3118 17.0044 22.3034 17.005 22.2951 17.0056Z" fill="#483737"/>
<path fill-rule="evenodd" clip-rule="evenodd" d="M18.6881 21.6959L17.5286 21.8161L17.4053 20.6262L18.5647 20.506L18.6881 21.6959Z" fill="#483737"/>
<path fill-rule="evenodd" clip-rule="evenodd" d="M12.6293 24.994C12.592 24.9494 12.5563 24.907 12.5189 24.8642L13.4198 24.0772C13.4663 24.1304 13.5091 24.1814 13.5467 24.2263C13.55 24.2302 13.5532 24.234 13.5563 24.2378C13.5909 24.2792 13.62 24.3139 13.6483 24.3466C13.7111 24.419 13.7491 24.4562 13.7773 24.4783C13.7999 24.496 13.8098 24.499 13.8155 24.5006C13.8233 24.5028 13.8538 24.5101 13.9249 24.5027L14.0482 25.6926C13.6396 25.735 13.3129 25.6347 13.0382 25.4189C12.9194 25.3256 12.8222 25.2199 12.7445 25.1302C12.7089 25.0891 12.673 25.0462 12.6398 25.0065C12.6362 25.0023 12.6328 24.9982 12.6293 24.994Z" fill="#483737"/>
<path fill-rule="evenodd" clip-rule="evenodd" d="M21.8586 24.4776C21.6846 24.5135 21.4769 24.5563 21.2578 24.579L21.1345 23.3891C21.287 23.3733 21.4397 23.3425 21.6222 23.3049C21.628 23.3037 21.6339 23.3025 21.6397 23.3013C21.8089 23.2664 22.0086 23.2252 22.2139 23.204L22.3373 24.3938C22.1949 24.4086 22.0485 24.4385 21.8637 24.4765L21.8586 24.4776Z" fill="#483737"/>
<path fill-rule="evenodd" clip-rule="evenodd" d="M13.6405 9.03518L12.5535 9.14787L12.4302 7.95801L13.5172 7.84531L13.6405 9.03518Z" fill="#483737"/>
<path fill-rule="evenodd" clip-rule="evenodd" d="M6.36729 16.6009L5.20784 16.7211L5.08447 15.5312L6.24393 15.411L6.36729 16.6009Z" fill="#483737"/>
<ellipse cx="43.9221" cy="31.1902" rx="7.77558" ry="1.79437" transform="rotate(-5.91921 43.9221 31.1902)" fill="#CAB9B9"/>
<path fill-rule="evenodd" clip-rule="evenodd" d="M37.6144 7.19088C37.4146 7.20195 37.3178 7.25614 37.2645 7.31568C37.1774 7.41304 37.0917 7.52676 36.9923 7.66229C36.9809 7.67782 36.9692 7.69374 36.9574 7.70999C36.8715 7.82729 36.7735 7.96132 36.6711 8.08457C36.4463 8.35526 36.0982 8.70546 35.575 8.77263L35.5605 8.77449C35.1661 8.81538 34.7583 8.77397 34.3948 8.72711C34.2915 8.71379 34.1921 8.70012 34.0956 8.68683C33.8311 8.65042 33.5874 8.61689 33.3397 8.60135C32.6922 8.56075 32.2303 8.65989 31.8679 9.10609C31.8359 9.14557 31.7802 9.21803 31.7102 9.30914C31.5577 9.50768 31.337 9.79481 31.1443 10.0224C30.9911 10.2033 30.8207 10.3907 30.6506 10.5437C30.5035 10.676 30.271 10.8637 29.9967 10.9233C29.826 10.9604 29.6428 10.9931 29.4671 11.0245L29.4551 11.0267C29.2716 11.0595 29.0932 11.0915 28.919 11.1288C28.5612 11.2053 28.2771 11.2933 28.0784 11.4096C27.7898 11.5787 27.5165 11.6933 27.2925 11.7854C27.2822 11.7896 27.2722 11.7937 27.2622 11.7978C27.0412 11.8886 26.894 11.949 26.7696 12.0232C26.6552 12.0913 26.585 12.1577 26.5319 12.2449C26.4751 12.3379 26.4138 12.4947 26.3832 12.7773C26.2753 13.7745 25.9796 14.4097 25.5877 15.185C25.2595 15.8343 24.8504 16.4352 24.4546 17.0012C24.4038 17.0738 24.3533 17.1457 24.3032 17.2171C23.9553 17.7128 23.6253 18.1829 23.341 18.6732C23.2935 18.7551 23.2516 18.8267 23.2147 18.8899C23.0429 19.1839 22.9775 19.2958 22.9397 19.4254C22.9031 19.5513 22.8894 19.7215 22.9428 20.2367C22.9855 20.6486 23.0572 20.8325 23.1499 20.9627C23.2534 21.1079 23.4312 21.2561 23.8378 21.5041C24.7827 22.0805 25.4095 22.7188 25.8165 23.5043C26.2157 24.2747 26.3775 25.1389 26.4783 26.1109C26.5025 26.344 26.633 26.6154 26.9091 26.9256C27.183 27.2334 27.5644 27.5387 28.0103 27.8353C28.701 28.2947 29.4729 28.6878 30.1317 29.0233C30.3316 29.1251 30.5211 29.2216 30.6947 29.313C30.8939 29.4179 31.1107 29.5267 31.3372 29.6404C32.058 30.002 32.8766 30.4127 33.5341 30.9022C33.7782 31.0838 34.0315 31.1385 34.3605 31.129C34.533 31.124 34.7177 31.1014 34.9324 31.0706C34.9765 31.0642 35.0224 31.0575 35.0696 31.0505C35.2421 31.0251 35.4329 30.997 35.6238 30.9772C38.6488 30.6636 41.6226 30.08 43.4182 27.8689C43.7138 27.5049 43.9652 27.0947 44.2411 26.6446C44.3016 26.5459 44.3632 26.4453 44.4268 26.3429C44.7665 25.7953 45.1552 25.2053 45.6708 24.728C46.1408 24.293 46.3862 23.9858 46.5477 23.6742C46.7122 23.3568 46.8115 22.9945 46.9289 22.4005C46.9779 22.1528 47.008 21.9184 47.0408 21.6634C47.0534 21.5658 47.0663 21.4652 47.0808 21.3597C47.1314 20.9926 47.1985 20.5942 47.3373 20.1747C47.4865 19.7239 47.4811 19.3411 47.4133 18.9235C47.3813 18.7263 47.3368 18.5292 47.2862 18.3046C47.2807 18.2803 47.2752 18.2557 47.2696 18.2308C47.2151 17.9885 47.1564 17.7201 47.1138 17.4291C47.1118 17.4264 47.0994 17.3902 47.0594 17.3079C47.0106 17.2072 46.9431 17.0824 46.8672 16.9492C46.7162 16.684 46.5481 16.4133 46.4699 16.2905C46.2583 15.9582 46.0242 15.6439 45.7755 15.3202C45.723 15.2519 45.6695 15.1827 45.6155 15.1128C45.4179 14.8572 45.2123 14.5913 45.0173 14.3181C44.6336 13.7807 44.4879 13.3195 44.3787 12.9739C44.3613 12.919 44.3449 12.8669 44.3285 12.818C44.2231 12.502 44.1139 12.2523 43.7167 11.9297C43.5456 11.7908 43.398 11.6651 43.2626 11.5498C42.8028 11.1583 42.4835 10.8865 41.8633 10.6215C41.3469 10.4009 40.965 10.0196 40.6663 9.65674C40.5156 9.47366 40.3767 9.28323 40.2504 9.10857C40.2376 9.09081 40.2249 9.07324 40.2123 9.05587C40.0979 8.89737 39.9947 8.75447 39.8899 8.62225C39.7566 8.454 39.4364 8.12496 39.0799 7.81887C38.9045 7.66828 38.7319 7.53328 38.5807 7.43187C38.5052 7.3813 38.4406 7.3428 38.388 7.31574C38.362 7.30238 38.3413 7.29304 38.3258 7.28679C38.3113 7.28097 38.3034 7.27879 38.3034 7.27879C38.0589 7.21838 37.8178 7.1796 37.6144 7.19088ZM37.5482 5.99647C37.928 5.97541 38.3046 6.04688 38.5903 6.11747C38.8235 6.17508 39.0576 6.31142 39.2468 6.43828C39.4501 6.57455 39.6616 6.74159 39.8592 6.91126C40.2487 7.2457 40.63 7.63012 40.8275 7.87937C40.9499 8.03387 41.0693 8.19922 41.1811 8.35409C41.1941 8.37212 41.2071 8.39001 41.2199 8.40773C41.3463 8.58265 41.4656 8.74552 41.5899 8.89649C41.8412 9.20177 42.0761 9.41158 42.3333 9.52147C43.1343 9.86373 43.6085 10.2692 44.0936 10.6841C44.2168 10.7895 44.3407 10.8954 44.4708 11.0011C45.0936 11.5069 45.3089 11.9765 45.4633 12.4394C45.4849 12.5041 45.5048 12.5664 45.5242 12.627C45.6314 12.962 45.7228 13.2475 45.9909 13.623C46.1714 13.8759 46.3586 14.118 46.5539 14.3708C46.61 14.4433 46.6667 14.5167 46.7241 14.5915C46.9773 14.921 47.2379 15.2694 47.479 15.648C47.5637 15.7811 47.743 16.0695 47.9068 16.3574C47.9884 16.5007 48.0703 16.651 48.1355 16.7853C48.1872 16.8917 48.2709 17.0703 48.2944 17.235C48.33 17.4848 48.3812 17.7215 48.4367 17.9684C48.4423 17.9933 48.448 18.0184 48.4537 18.0437C48.5031 18.2627 48.5558 18.4963 48.5941 18.7318C48.6825 19.2763 48.7 19.8646 48.473 20.5504C48.3686 20.8661 48.3132 21.1795 48.2659 21.5229C48.2545 21.6056 48.2434 21.6924 48.2319 21.782C48.1975 22.0491 48.1599 22.342 48.1025 22.6325C47.9817 23.2432 47.8572 23.7475 47.6097 24.2248C47.3592 24.708 47.0043 25.1237 46.4834 25.6059C46.0965 25.964 45.7796 26.4314 45.4433 26.9734C45.3883 27.0622 45.3324 27.1535 45.2755 27.2465C44.9988 27.6987 44.6974 28.1914 44.3468 28.623C42.2079 31.2568 38.7484 31.8559 35.7472 32.167C35.5844 32.1839 35.4276 32.207 35.2592 32.2318C35.2082 32.2393 35.1561 32.247 35.1024 32.2547C34.8814 32.2864 34.64 32.3176 34.3952 32.3247C33.8896 32.3394 33.344 32.2519 32.8199 31.8618C32.2544 31.4409 31.5758 31.1 30.878 30.7495C30.6321 30.626 30.3838 30.5013 30.1373 30.3715C29.9885 30.2931 29.8171 30.2059 29.63 30.1107C28.9658 29.7727 28.1032 29.3338 27.3477 28.8313C26.8593 28.5064 26.3848 28.1359 26.0155 27.721C25.6483 27.3085 25.3482 26.8103 25.2885 26.2343C25.192 25.3037 25.048 24.6213 24.7544 24.0546C24.4686 23.503 24.0154 23.0137 23.2148 22.5253C22.7953 22.2694 22.4313 22.0156 22.1756 21.6568C21.9094 21.283 21.8048 20.8607 21.7529 20.3601C21.6991 19.8408 21.6831 19.4623 21.7912 19.0912C21.874 18.8063 22.0316 18.5394 22.205 18.2456C22.2383 18.1892 22.2721 18.1318 22.3062 18.0731C22.6184 17.5346 22.9808 17.0185 23.3261 16.5269C23.3759 16.4559 23.4254 16.3855 23.4743 16.3155C23.8694 15.7506 24.2342 15.2111 24.5201 14.6454C24.8949 13.904 25.1099 13.4256 25.1939 12.6486C25.2374 12.2468 25.3368 11.9071 25.5105 11.6221C25.6879 11.3311 25.9181 11.138 26.1573 10.9955C26.3616 10.8737 26.5895 10.7805 26.7838 10.701C26.8021 10.6935 26.8201 10.6862 26.8378 10.6789C27.0569 10.5888 27.2631 10.5009 27.4737 10.3775C27.844 10.1605 28.2835 10.0414 28.6687 9.95897C28.866 9.91679 29.0639 9.88138 29.2447 9.84908C29.4187 9.81798 29.5745 9.79012 29.7162 9.76003C29.7233 9.75476 29.7669 9.72959 29.8506 9.65426C29.9623 9.5538 30.0926 9.41321 30.2315 9.24925C30.4178 9.02918 30.5688 8.83139 30.7029 8.65577C30.7869 8.54582 30.8642 8.44455 30.9393 8.35196C31.6588 7.46602 32.6048 7.35667 33.4145 7.40745C33.7107 7.42602 34.0184 7.46844 34.2948 7.50653C34.3827 7.51866 34.4675 7.53034 34.5477 7.54069C34.8984 7.58588 35.1842 7.60928 35.4275 7.58542C35.4786 7.5771 35.5732 7.53417 35.7508 7.3203C35.828 7.22735 35.9028 7.12526 35.9913 7.00444C36.0032 6.98818 36.0154 6.97158 36.0278 6.95462C36.127 6.81947 36.243 6.66336 36.3728 6.51824C36.7125 6.13846 37.1646 6.01773 37.5482 5.99647Z" fill="#65402D"/>
<path d="M37.2645 7.31568C37.3178 7.25614 37.4146 7.20195 37.6144 7.19088C37.8178 7.1796 38.0589 7.21838 38.3034 7.27879C38.3034 7.27879 38.3113 7.28097 38.3258 7.28679C38.3413 7.29304 38.362 7.30238 38.388 7.31574C38.4406 7.3428 38.5052 7.3813 38.5807 7.43187C38.7319 7.53328 38.9045 7.66828 39.0799 7.81887C39.4364 8.12496 39.7566 8.454 39.8899 8.62225C39.9947 8.75447 40.0979 8.89737 40.2123 9.05587L40.2504 9.10857C40.3767 9.28323 40.5156 9.47366 40.6663 9.65674C40.965 10.0196 41.3469 10.4009 41.8633 10.6215C42.4835 10.8865 42.8028 11.1583 43.2626 11.5498C43.398 11.6651 43.5456 11.7908 43.7167 11.9297C44.1139 12.2523 44.2231 12.502 44.3285 12.818C44.3449 12.8669 44.3613 12.919 44.3787 12.9739C44.4879 13.3195 44.6336 13.7807 45.0173 14.3181C45.2123 14.5913 45.4179 14.8572 45.6155 15.1128C45.6695 15.1827 45.723 15.2519 45.7755 15.3202C46.0242 15.6439 46.2583 15.9582 46.4699 16.2905C46.5481 16.4133 46.7162 16.684 46.8672 16.9492C46.9431 17.0824 47.0106 17.2072 47.0594 17.3079C47.0994 17.3902 47.1118 17.4264 47.1138 17.4291C47.1564 17.7201 47.2151 17.9885 47.2696 18.2308L47.2862 18.3046C47.3368 18.5292 47.3813 18.7263 47.4133 18.9235C47.4811 19.3411 47.4865 19.7239 47.3373 20.1747C47.1985 20.5942 47.1314 20.9926 47.0808 21.3597C47.0663 21.4652 47.0534 21.5658 47.0408 21.6634C47.008 21.9184 46.9779 22.1528 46.9289 22.4005C46.8115 22.9945 46.7122 23.3568 46.5477 23.6742C46.3862 23.9858 46.1408 24.293 45.6708 24.728C45.1552 25.2053 44.7665 25.7953 44.4268 26.3429C44.3632 26.4453 44.3016 26.5459 44.2411 26.6446C43.9652 27.0947 43.7138 27.5049 43.4182 27.8689C41.6226 30.08 38.6488 30.6636 35.6238 30.9772C35.4329 30.997 35.2421 31.0251 35.0696 31.0505L34.9324 31.0706C34.7177 31.1014 34.533 31.124 34.3605 31.129C34.0315 31.1385 33.7782 31.0838 33.5341 30.9022C32.8766 30.4127 32.058 30.002 31.3372 29.6404C31.1107 29.5267 30.8939 29.4179 30.6947 29.313C30.5211 29.2216 30.3316 29.1251 30.1317 29.0233C29.4729 28.6878 28.701 28.2947 28.0103 27.8353C27.5644 27.5387 27.183 27.2334 26.9091 26.9256C26.633 26.6154 26.5025 26.344 26.4783 26.1109C26.3775 25.1389 26.2157 24.2747 25.8165 23.5043C25.4095 22.7188 24.7827 22.0805 23.8378 21.5041C23.4312 21.2561 23.2534 21.1079 23.1499 20.9627C23.0572 20.8325 22.9855 20.6486 22.9428 20.2367C22.8894 19.7215 22.9031 19.5513 22.9397 19.4254C22.9775 19.2958 23.0429 19.1839 23.2147 18.8899C23.2516 18.8267 23.2935 18.7551 23.341 18.6732C23.6253 18.1829 23.9553 17.7128 24.3032 17.2171L24.4546 17.0012C24.8504 16.4352 25.2595 15.8343 25.5877 15.185C25.9796 14.4097 26.2753 13.7745 26.3832 12.7773C26.4138 12.4947 26.4751 12.3379 26.5319 12.2449C26.585 12.1577 26.6552 12.0913 26.7696 12.0232C26.894 11.949 27.0412 11.8886 27.2622 11.7978L27.2925 11.7854C27.5165 11.6933 27.7898 11.5787 28.0784 11.4096C28.2771 11.2933 28.5612 11.2053 28.919 11.1288C29.0932 11.0915 29.2716 11.0595 29.4551 11.0267L29.4671 11.0245C29.6428 10.9931 29.826 10.9604 29.9967 10.9233C30.271 10.8637 30.5035 10.676 30.6506 10.5437C30.8207 10.3907 30.9911 10.2033 31.1443 10.0224C31.337 9.79481 31.5577 9.50768 31.7102 9.30914C31.7802 9.21803 31.8359 9.14557 31.8679 9.10609C32.2303 8.65989 32.6922 8.56075 33.3397 8.60135C33.5874 8.61689 33.8311 8.65042 34.0956 8.68683C34.1921 8.70012 34.2915 8.71379 34.3948 8.72711C34.7583 8.77397 35.1661 8.81538 35.5605 8.77449L35.575 8.77263C36.0982 8.70546 36.4463 8.35526 36.6711 8.08457C36.7735 7.96132 36.8715 7.82729 36.9574 7.70999L36.9923 7.66229C37.0917 7.52676 37.1774 7.41304 37.2645 7.31568Z" fill="#DCB397"/>
<path fill-rule="evenodd" clip-rule="evenodd" d="M29.6515 13.146C29.6175 12.8174 29.8562 12.5234 30.1848 12.4893L30.7645 12.4292C31.0931 12.3952 31.3871 12.6339 31.4211 12.9625C31.4552 13.2911 31.2164 13.585 30.8879 13.6191L30.3081 13.6792C29.9796 13.7133 29.6856 13.4745 29.6515 13.146Z" fill="#65402D"/>
<path fill-rule="evenodd" clip-rule="evenodd" d="M37.5988 13.4941C37.5647 13.1655 37.8035 12.8716 38.132 12.8375C38.6017 12.7888 39.0274 12.7692 39.5448 12.8606C39.8701 12.9182 40.0872 13.2285 40.0297 13.5538C39.9721 13.879 39.6618 14.0961 39.3365 14.0386C38.976 13.9749 38.6756 13.9838 38.2554 14.0274C37.9268 14.0614 37.6329 13.8227 37.5988 13.4941Z" fill="#65402D"/>
<path fill-rule="evenodd" clip-rule="evenodd" d="M33.1466 17.1784C33.1126 16.8499 33.3513 16.5559 33.6799 16.5218L34.6219 16.4241C34.9505 16.3901 35.2445 16.6288 35.2786 16.9574C35.3126 17.286 35.0739 17.5799 34.7453 17.614L33.8033 17.7117C33.4747 17.7457 33.1807 17.507 33.1466 17.1784Z" fill="#65402D"/>
<path fill-rule="evenodd" clip-rule="evenodd" d="M26.3927 20.1617C26.5584 19.876 26.9244 19.7786 27.2101 19.9443C27.5478 20.1402 27.5853 20.1566 27.6831 20.1465C28.0117 20.1124 28.3056 20.3512 28.3397 20.6798C28.3738 21.0083 28.135 21.3023 27.8065 21.3364C27.2975 21.3891 26.9225 21.1653 26.6799 21.0205C26.6552 21.0058 26.632 20.9919 26.61 20.9792C26.3243 20.8135 26.2269 20.4475 26.3927 20.1617Z" fill="#65402D"/>
<path fill-rule="evenodd" clip-rule="evenodd" d="M32.1226 24.6284C32.1998 24.3072 32.5228 24.1095 32.844 24.1867C33.0298 24.2314 33.2274 24.2905 33.4031 24.343C33.4816 24.3665 33.5558 24.3887 33.6226 24.4077C33.9403 24.4981 34.1246 24.8289 34.0342 25.1467C33.9438 25.4644 33.6129 25.6487 33.2952 25.5583C33.1942 25.5296 33.103 25.5022 33.0165 25.4762C32.8603 25.4294 32.7194 25.3871 32.5643 25.3498C32.2431 25.2726 32.0454 24.9496 32.1226 24.6284Z" fill="#65402D"/>
<path fill-rule="evenodd" clip-rule="evenodd" d="M40.6388 22.3344C40.6048 22.0059 40.8435 21.7119 41.1721 21.6778L41.8243 21.6102C42.1528 21.5761 42.4468 21.8149 42.4809 22.1435C42.515 22.472 42.2762 22.766 41.9476 22.8001L41.2954 22.8677C40.9669 22.9018 40.6729 22.663 40.6388 22.3344Z" fill="#65402D"/>
<path fill-rule="evenodd" clip-rule="evenodd" d="M34.9635 20.5788C34.9295 20.2502 35.1682 19.9563 35.4968 19.9222L35.9316 19.8771C36.2602 19.8431 36.5541 20.0818 36.5882 20.4104C36.6223 20.7389 36.3835 21.0329 36.0549 21.067L35.6202 21.1121C35.2916 21.1461 34.9976 20.9074 34.9635 20.5788Z" fill="#65402D"/>
<path fill-rule="evenodd" clip-rule="evenodd" d="M38.8199 26.5363C39.1484 26.5022 39.4424 26.7409 39.4765 27.0695C39.4818 27.1203 39.4896 27.1741 39.4998 27.2444C39.5007 27.2508 39.5017 27.2573 39.5026 27.2639C39.5134 27.3384 39.5264 27.4294 39.5347 27.5235C39.5507 27.7051 39.5563 27.9608 39.459 28.2192C39.3425 28.5283 38.9975 28.6845 38.6884 28.568C38.3792 28.4515 38.2231 28.1065 38.3395 27.7974C38.3422 27.7903 38.3536 27.7485 38.3431 27.6284C38.3381 27.5716 38.3297 27.5108 38.3188 27.4358C38.3178 27.4287 38.3167 27.4214 38.3156 27.414C38.3061 27.3485 38.2946 27.2697 38.2866 27.1929C38.2526 26.8643 38.4913 26.5703 38.8199 26.5363Z" fill="#65402D"/>
<path fill-rule="evenodd" clip-rule="evenodd" d="M42.5608 16.6916C42.7048 16.3943 43.0625 16.27 43.3598 16.414C43.3792 16.4234 43.4003 16.4332 43.4226 16.4436C43.6463 16.5479 44.0016 16.7135 44.2038 17.1603C44.3401 17.4612 44.2065 17.8156 43.9056 17.9518C43.6047 18.0881 43.2503 17.9545 43.114 17.6536C43.1093 17.643 43.1056 17.6366 43.1035 17.6332C43.1014 17.6298 43.1003 17.6285 43.1 17.6282L43.0982 17.6264C43.097 17.6252 43.0939 17.6226 43.0881 17.6185C43.075 17.6093 43.0526 17.5955 43.0091 17.5734C42.9778 17.5574 42.9483 17.5433 42.9106 17.5253C42.8897 17.5153 42.8662 17.504 42.8384 17.4906C42.5411 17.3466 42.4168 16.9889 42.5608 16.6916Z" fill="#65402D"/>
<path fill-rule="evenodd" clip-rule="evenodd" d="M31.7491 27.6163C31.987 27.3872 32.3657 27.3944 32.5948 27.6323C32.5951 27.6326 32.5954 27.6329 32.5956 27.6332C32.6158 27.6541 32.6208 27.6593 32.6942 27.6824C32.7023 27.685 32.7119 27.6879 32.7226 27.6911C32.8244 27.7216 33.0348 27.7848 33.2383 27.9501C33.4947 28.1583 33.5338 28.535 33.3255 28.7914C33.1173 29.0479 32.7406 29.0869 32.4842 28.8787C32.4833 28.878 32.4826 28.8774 32.4819 28.8768C32.4705 28.8673 32.4684 28.8655 32.3346 28.8233C32.1809 28.7749 31.9558 28.6933 31.7331 28.4621C31.504 28.2241 31.5111 27.8455 31.7491 27.6163Z" fill="#65402D"/>
</svg>
